<?xml version="1.0" encoding="UTF-8"?>
<!--Generator: Apple Native CoreSVG 360-->
<!DOCTYPE svg
PUBLIC "-//W3C//DTD SVG 1.1//EN"
       "http://www.w3.org/Graphics/SVG/1.1/DTD/svg11.dtd">
<svg version="1.1" xmlns="http://www.w3.org/2000/svg" xmlns:xlink="http://www.w3.org/1999/xlink" viewBox="0 0 146.985 106.276">
 <g>
  <rect height="106.276" opacity="0" width="146.985" x="0" y="0"/>
  <path d="M19.0201 106.276L127.995 106.276C140.646 106.276 146.985 99.8982 146.985 87.4585L146.985 18.9595C146.985 6.51971 140.646 0.142368 127.995 0.142368L19.0201 0.142368C6.41941 0.142368 0.00017396 6.46014 0.00017396 18.9595L0.00017396 87.4585C0.00017396 99.9577 6.41941 106.276 19.0201 106.276ZM19.1809 97.6096C12.3499 97.6096 8.63637 93.9975 8.63637 86.9935L8.63637 19.4243C8.63637 12.3907 12.3499 8.80825 19.1809 8.80825L127.834 8.80825C134.516 8.80825 138.378 12.3907 138.378 19.4243L138.378 86.9935C138.378 93.9975 134.516 97.6096 127.834 97.6096Z" fill="black" fill-opacity="0.85"/>
  <path d="M44.2612 78.5969C44.2612 83.3152 47.0498 86.1035 51.8695 86.1035L95.2048 86.1035C100.025 86.1035 102.864 83.3152 102.864 78.5969L102.864 42.3644L97.3576 41.3415L97.3576 77.9921C97.3576 79.9661 96.5954 80.6987 94.7819 80.6987L52.3221 80.6987C50.5092 80.6987 49.7167 79.9364 49.7167 77.9921L49.7167 41.4005L44.2612 42.3644ZM35.4386 49.6543C35.4386 51.2065 36.6183 52.3354 38.1617 52.3354C38.8472 52.3354 39.4009 52.124 39.9254 51.6504L72.8677 24.037C73.3467 23.6171 73.7276 23.6171 74.1773 24.037L107.06 51.6504C107.614 52.1538 108.168 52.3354 108.823 52.3354C110.396 52.3354 111.606 51.2065 111.606 49.6543C111.606 48.7871 111.285 48.0811 110.396 47.3746L77.5737 19.77C75.1279 17.6968 71.9761 17.6968 69.5304 19.77L36.6183 47.3746C35.7306 48.0811 35.4386 48.7871 35.4386 49.6543ZM94.0271 36.9123L102.864 44.3365L102.864 27.8539C102.864 26.2719 101.705 25.0536 99.962 25.0536L96.8991 25.0536C95.1862 25.0536 94.0271 26.2421 94.0271 27.8539Z" fill="black" fill-opacity="0.85"/>
  <path d="M54.576 72.1174C54.576 74.4252 55.9398 75.8099 58.2268 75.8099L88.928 75.8099C91.1345 75.8099 92.4983 74.4252 92.4983 72.1174L92.4983 46.23L76.102 32.5081C74.6543 31.2005 72.5215 31.2005 70.9937 32.4573L54.576 46.23ZM60.0315 69.4556L60.0315 48.8521L73.004 37.9074C73.3257 37.6662 73.7486 37.6662 74.0703 37.9074L87.0428 48.8521L87.0428 69.4556C87.0428 70.176 86.7542 70.4051 86.0638 70.4051L61.011 70.4051C60.3201 70.4051 60.0315 70.176 60.0315 69.4556Z" fill="black" fill-opacity="0.85"/>
  <path d="M64.9201 61.9119C64.9201 64.0864 66.4606 65.5461 68.6051 65.5461L78.4394 65.5461C80.644 65.5461 82.184 64.0864 82.184 61.9119L82.184 51.4453L75.7417 46.0484C74.4043 44.9015 72.6407 44.9312 71.3326 46.0484L64.9201 51.4453ZM70.2745 59.7899L70.2745 53.9062L73.1353 51.4653C73.4063 51.2749 73.7276 51.2749 73.9693 51.4653L76.8003 53.9062L76.8003 59.7899C76.8003 60.0311 76.6392 60.1918 76.3979 60.1918L70.6764 60.1918C70.4351 60.1918 70.2745 60.0311 70.2745 59.7899Z" fill="black" fill-opacity="0.85"/>
 </g>
</svg>
