<?xml version="1.0" encoding="UTF-8"?>
<!--Generator: Apple Native CoreSVG 360-->
<!DOCTYPE svg
PUBLIC "-//W3C//DTD SVG 1.1//EN"
       "http://www.w3.org/Graphics/SVG/1.1/DTD/svg11.dtd">
<svg version="1.1" xmlns="http://www.w3.org/2000/svg" xmlns:xlink="http://www.w3.org/1999/xlink" viewBox="0 0 125.098 114.893">
 <g>
  <rect height="114.893" opacity="0" width="125.098" x="0" y="0"/>
  <path d="M18.9941 114.893L106.055 114.893C118.701 114.893 125.098 108.545 125.098 96.0938L125.098 18.9453C125.098 6.49414 118.701 0.146484 106.055 0.146484L18.9941 0.146484C6.39648 0.146484 0 6.44531 0 18.9453L0 96.0938C0 108.594 6.39648 114.893 18.9941 114.893ZM18.3105 106.25C12.0605 106.25 8.64258 102.93 8.64258 96.4844L8.64258 38.2324C8.64258 31.7383 12.0605 28.4668 18.3105 28.4668L106.689 28.4668C112.891 28.4668 116.406 31.7383 116.406 38.2324L116.406 96.4844C116.406 102.93 112.891 106.25 106.689 106.25Z" fill="#ff383c"/>
  <path d="M91.748 76.0254C96.582 76.0254 100.488 72.1191 100.488 67.2852C100.488 62.5 96.582 58.5449 91.748 58.5449C86.9629 58.5449 83.0566 62.5 83.0566 67.2852C83.0566 72.1191 86.9629 76.0254 91.748 76.0254Z" fill="#ff383c"/>
  <path d="M62.5977 76.0254C67.3828 76.0254 71.2891 72.1191 71.2891 67.2852C71.2891 62.5 67.3828 58.5449 62.5977 58.5449C57.7637 58.5449 53.8574 62.5 53.8574 67.2852C53.8574 72.1191 57.7637 76.0254 62.5977 76.0254Z" fill="#ff383c"/>
  <path d="M33.3984 76.0254C38.1836 76.0254 42.1387 72.1191 42.1387 67.2852C42.1387 62.5 38.1348 58.5449 33.3984 58.5449C28.5645 58.5449 24.6582 62.5 24.6582 67.2852C24.6582 72.1191 28.5645 76.0254 33.3984 76.0254Z" fill="#ff383c"/>
 </g>
</svg>
