<?xml version="1.0" encoding="UTF-8"?>
<!--Generator: Apple Native CoreSVG 360-->
<!DOCTYPE svg
PUBLIC "-//W3C//DTD SVG 1.1//EN"
       "http://www.w3.org/Graphics/SVG/1.1/DTD/svg11.dtd">
<svg version="1.1" xmlns="http://www.w3.org/2000/svg" xmlns:xlink="http://www.w3.org/1999/xlink" viewBox="0 0 157.275 98.584">
 <g>
  <rect height="98.584" opacity="0" width="157.275" x="0" y="0"/>
  <path d="M18.9941 98.4375L138.281 98.4375C150.879 98.4375 157.275 92.041 157.275 79.5898L157.275 18.8477C157.275 6.39648 150.879 0 138.281 0L18.9941 0C6.34766 0 0 6.34766 0 18.8477L0 79.5898C0 92.0898 6.34766 98.4375 18.9941 98.4375ZM19.1895 89.7949C12.3535 89.7949 8.64258 86.1328 8.64258 79.1504L8.64258 19.2871C8.64258 12.3047 12.3535 8.69141 19.1895 8.69141L138.086 8.69141C144.775 8.69141 148.633 12.3047 148.633 19.2871L148.633 79.1504C148.633 86.1328 144.775 89.7949 138.086 89.7949Z" fill="black" fill-opacity="0.85"/>
  <path d="M24.3164 34.0332L28.6621 34.0332C29.7852 34.0332 30.3711 33.3496 30.3711 32.0801L30.3711 25.5859C30.3711 24.3164 29.7852 23.6328 28.6621 23.6328L24.3164 23.6328C23.1934 23.6328 22.5586 24.3164 22.5586 25.5859L22.5586 32.0801C22.5586 33.3496 23.1934 34.0332 24.3164 34.0332ZM38.1348 34.0332L42.4805 34.0332C43.6035 34.0332 44.2383 33.3496 44.2383 32.0801L44.2383 25.5859C44.2383 24.3164 43.6035 23.6328 42.4805 23.6328L38.1348 23.6328C37.0117 23.6328 36.377 24.3164 36.377 25.5859L36.377 32.0801C36.377 33.3496 37.0117 34.0332 38.1348 34.0332ZM52.002 34.0332L56.3477 34.0332C57.4219 34.0332 58.0566 33.3496 58.0566 32.0801L58.0566 25.5859C58.0566 24.3164 57.4219 23.6328 56.3477 23.6328L52.002 23.6328C50.8789 23.6328 50.1953 24.3164 50.1953 25.5859L50.1953 32.0801C50.1953 33.3496 50.8789 34.0332 52.002 34.0332ZM65.7715 34.0332L70.1172 34.0332C71.1914 34.0332 71.875 33.3496 71.875 32.0801L71.875 25.5859C71.875 24.3164 71.1914 23.6328 70.1172 23.6328L65.7715 23.6328C64.6484 23.6328 64.0137 24.3164 64.0137 25.5859L64.0137 32.0801C64.0137 33.3496 64.6484 34.0332 65.7715 34.0332ZM79.541 34.0332L83.9844 34.0332C85.0586 34.0332 85.6934 33.3496 85.6934 32.0801L85.6934 25.5859C85.6934 24.3164 85.0586 23.6328 83.9844 23.6328L79.541 23.6328C78.4668 23.6328 77.832 24.3164 77.832 25.5859L77.832 32.0801C77.832 33.3496 78.4668 34.0332 79.541 34.0332ZM93.457 34.0332L97.7539 34.0332C98.877 34.0332 99.5117 33.3496 99.5117 32.0801L99.5117 25.5859C99.5117 24.3164 98.877 23.6328 97.7539 23.6328L93.457 23.6328C92.2852 23.6328 91.6992 24.3164 91.6992 25.5859L91.6992 32.0801C91.6992 33.3496 92.2852 34.0332 93.457 34.0332ZM24.3164 54.2969L28.6621 54.2969C29.7852 54.2969 30.3711 53.6133 30.3711 52.3438L30.3711 45.8496C30.3711 44.5801 29.7852 43.8965 28.6621 43.8965L24.3164 43.8965C23.1934 43.8965 22.5586 44.5801 22.5586 45.8496L22.5586 52.3438C22.5586 53.6133 23.1934 54.2969 24.3164 54.2969ZM38.1348 54.2969L42.4805 54.2969C43.6035 54.2969 44.2383 53.6133 44.2383 52.3438L44.2383 45.8496C44.2383 44.5801 43.6035 43.8965 42.4805 43.8965L38.1348 43.8965C37.0117 43.8965 36.377 44.5801 36.377 45.8496L36.377 52.3438C36.377 53.6133 37.0117 54.2969 38.1348 54.2969ZM52.002 54.2969L56.3477 54.2969C57.4219 54.2969 58.0566 53.6133 58.0566 52.3438L58.0566 45.8496C58.0566 44.5801 57.4219 43.8965 56.3477 43.8965L52.002 43.8965C50.8789 43.8965 50.1953 44.5801 50.1953 45.8496L50.1953 52.3438C50.1953 53.6133 50.8789 54.2969 52.002 54.2969ZM65.7715 54.2969L70.1172 54.2969C71.1914 54.2969 71.875 53.6133 71.875 52.3438L71.875 45.8496C71.875 44.5801 71.1914 43.8965 70.1172 43.8965L65.7715 43.8965C64.6484 43.8965 64.0137 44.5801 64.0137 45.8496L64.0137 52.3438C64.0137 53.6133 64.6484 54.2969 65.7715 54.2969ZM79.541 54.2969L83.9844 54.2969C85.0586 54.2969 85.6934 53.6133 85.6934 52.3438L85.6934 45.8496C85.6934 44.5801 85.0586 43.8965 83.9844 43.8965L79.541 43.8965C78.4668 43.8965 77.832 44.5801 77.832 45.8496L77.832 52.3438C77.832 53.6133 78.4668 54.2969 79.541 54.2969ZM93.457 54.2969L97.7539 54.2969C98.877 54.2969 99.5117 53.6133 99.5117 52.3438L99.5117 45.8496C99.5117 44.5801 98.877 43.8965 97.7539 43.8965L93.457 43.8965C92.2852 43.8965 91.6992 44.5801 91.6992 45.8496L91.6992 52.3438C91.6992 53.6133 92.2852 54.2969 93.457 54.2969ZM24.3164 74.5605L28.6621 74.5605C29.7852 74.5605 30.3711 73.877 30.3711 72.6074L30.3711 66.1133C30.3711 64.8438 29.7852 64.1602 28.6621 64.1602L24.3164 64.1602C23.1934 64.1602 22.5586 64.8438 22.5586 66.1133L22.5586 72.6074C22.5586 73.877 23.1934 74.5605 24.3164 74.5605ZM38.1348 74.5605L83.9844 74.5605C85.0586 74.5605 85.6934 73.877 85.6934 72.6074L85.6934 66.1133C85.6934 64.8438 85.0586 64.1602 83.9844 64.1602L38.1348 64.1602C37.0117 64.1602 36.377 64.8438 36.377 66.1133L36.377 72.6074C36.377 73.877 37.0117 74.5605 38.1348 74.5605ZM93.457 74.5605L97.7539 74.5605C98.877 74.5605 99.5117 73.877 99.5117 72.6074L99.5117 66.1133C99.5117 64.8438 98.877 64.1602 97.7539 64.1602L93.457 64.1602C92.2852 64.1602 91.6992 64.8438 91.6992 66.1133L91.6992 72.6074C91.6992 73.877 92.2852 74.5605 93.457 74.5605ZM110.059 46.0449C107.959 48.0957 107.959 50.3418 110.059 52.3926L129.199 70.752C131.201 72.6074 134.473 71.7773 134.473 68.75L134.473 29.6875C134.473 26.6602 131.201 25.8301 129.199 27.6855Z" fill="black" fill-opacity="0.85"/>
 </g>
</svg>
